<?xml version="1.0" encoding="utf-8"?>
<!-- Generator: Adobe Illustrator 18.0.0, SVG Export Plug-In . SVG Version: 6.00 Build 0)  -->
<!DOCTYPE svg PUBLIC "-//W3C//DTD SVG 1.1//EN" "http://www.w3.org/Graphics/SVG/1.1/DTD/svg11.dtd">
<svg version="1.1" id="Layer_1" xmlns="http://www.w3.org/2000/svg" xmlns:xlink="http://www.w3.org/1999/xlink" x="0px" y="0px"
	 viewBox="0 0 500 300" enable-background="new 0 0 500 300" xml:space="preserve">
<g>
	<g>
		<path stroke="#FFFFFF" stroke-width="3" stroke-miterlimit="10" d="M58.5,169.4c2.7,5.1,6.3,9.2,10.7,12.3c4.5,3.1,9.7,5.5,15.7,7
			c6,1.5,12.2,2.3,18.6,2.3c4.3,0,9-0.3,14-1.1c5-0.7,9.6-2.1,14-4.1c4.3-2,8-4.8,10.9-8.3c2.9-3.5,4.3-8,4.3-13.5
			c0-5.9-1.9-10.6-5.7-14.3c-3.8-3.6-8.9-6.7-15.1-9.1c-6.2-2.4-13.3-4.6-21.1-6.4c-7.9-1.8-15.8-3.8-23.9-6.1
			c-8.3-2-16.4-4.5-24.2-7.4c-7.9-2.9-14.9-6.7-21.1-11.4c-6.2-4.7-11.2-10.5-15.1-17.4c-3.8-7-5.7-15.4-5.7-25.3
			c0-11.1,2.4-20.8,7.3-29c4.9-8.2,11.2-15,19.1-20.5C49,11.6,57.9,7.6,67.9,4.9C77.8,2.3,87.8,1,97.7,1c11.6,0,22.7,1.3,33.4,3.8
			c10.7,2.5,20.1,6.6,28.4,12.3c8.3,5.7,14.9,12.9,19.7,21.7c4.9,8.8,7.3,19.5,7.3,32h-47.2c-0.4-6.5-1.8-11.8-4.2-16.1
			c-2.4-4.2-5.5-7.6-9.5-10c-3.9-2.4-8.4-4.1-13.5-5.2c-5.1-1-10.6-1.5-16.6-1.5c-3.9,0-7.9,0.4-11.8,1.2c-3.9,0.8-7.5,2.2-10.7,4.2
			c-3.2,2-5.9,4.6-7.9,7.6c-2.1,3-3.1,6.9-3.1,11.5c0,4.2,0.8,7.7,2.5,10.3c1.7,2.6,4.9,5.1,9.8,7.3c4.9,2.2,11.6,4.5,20.2,6.7
			c8.6,2.2,19.8,5.1,33.7,8.5c4.1,0.8,9.9,2.3,17.2,4.4c7.4,2.1,14.7,5.5,21.9,10.2c7.2,4.7,13.5,10.9,18.8,18.7
			c5.3,7.8,7.9,17.7,7.9,29.9c0,9.9-2,19.1-5.9,27.6c-3.9,8.5-9.8,15.8-17.6,22c-7.8,6.2-17.4,11-28.9,14.4
			c-11.5,3.4-24.8,5.2-39.9,5.2c-12.2,0-24.1-1.5-35.6-4.4c-11.5-2.9-21.6-7.5-30.5-13.8c-8.8-6.3-15.8-14.3-21-24
			c-5.2-9.7-7.7-21.2-7.5-34.6h47.2C54.5,158.2,55.8,164.3,58.5,169.4z"/>
		<path d="M445.5,139.3c-1.9,14.6-7,26.3-15.4,35.2c-8.4,8.9-20,13.3-35,13.3c-11,0-20.3-2.1-28-6.2c-7.7-4.1-13.9-9.7-18.6-16.5
			c-4.8-6.9-8.2-14.6-10.4-23.2c-2.2-8.6-3.3-17.4-3.3-26.5c0-9.5,1.1-18.7,3.3-27.6c2.2-8.9,5.6-16.8,10.4-23.8
			c4.8-7,11-12.5,18.6-16.7c7.7-4.1,17-6.2,28-6.2c6,0,11.8,1,17.2,2.9c5.5,1.9,10.4,4.6,14.8,8c4.3,3.4,8,7.4,10.9,12
			c2.9,4.6,4.8,9.6,5.6,15h47.2c-1.5-12.5-5-23.7-10.6-33.4c-5.6-9.7-12.7-17.8-21.3-24.4c-8.6-6.6-18.3-11.6-29.2-15
			C418.9,2.7,407.4,1,395.2,1c-17,0-32.3,2.9-45.8,8.8C337.2,15.1,326.7,22.1,318,31c1.4,2,2.7,4,3.9,6.2c5.1,9.3,7.7,20.6,7.7,33.6
			v3.4h-37.3c-2.3,7.3-4,14.9-5,22.8c7.2,2.2,14.4,5.6,21.5,10.1c7.6,4.9,14.3,11.5,19.8,19.6c5.6,8.3,8.5,19,8.5,31.7
			c0,10.3-2.1,20.1-6.2,29c-2.4,5.1-5.5,9.9-9.2,14.2c8,7.1,17.2,12.9,27.7,17.3c13.6,5.8,28.8,8.6,45.8,8.6c13.7,0,26.2-2,37.6-6.1
			c11.4-4,21.3-9.9,29.8-17.6c8.5-7.7,15.3-17,20.5-27.9c5.2-10.9,8.4-23.2,9.6-36.7H445.5z"/>
		<path d="M324.5,184.7c3.7-8,5.6-16.8,5.6-26.2c0-11.4-2.5-20.8-7.4-28c-5-7.4-11-13.3-17.8-17.7c-6.9-4.4-14-7.7-21-9.7
			c-7.2-2.1-12.9-3.5-16.9-4.3c-14.4-3.6-25.4-6.3-33.9-8.5c-8.8-2.3-15.8-4.6-20.8-6.9c-5.5-2.5-9.2-5.3-11.3-8.6
			c-2-3.1-3-7.2-3-12.1c0-5.3,1.2-9.8,3.7-13.4c2.3-3.4,5.3-6.3,8.9-8.5c3.6-2.2,7.6-3.8,11.9-4.7c4.2-0.9,8.4-1.3,12.5-1.3
			c6.2,0,12,0.5,17.3,1.6c5.5,1.1,10.4,3,14.7,5.6c4.4,2.7,8,6.5,10.7,11.2c2.2,3.9,3.7,8.7,4.3,14.3h40.6
			c-0.4-10.5-2.7-19.6-6.8-27c-4.6-8.3-10.9-15.2-18.7-20.5c-7.9-5.4-17.1-9.4-27.3-11.8c-10.4-2.5-21.3-3.7-32.6-3.7
			c-9.6,0-19.3,1.3-28.9,3.8c-9.5,2.5-18.1,6.4-25.6,11.6c-2.8,2-5.5,4.1-7.9,6.5c2.8,3.3,5.4,7,7.5,10.9c5.1,9.3,7.7,20.6,7.7,33.6
			v3.4h-31.8c0.7,6.1,2.4,11.5,4.9,16.1c3.6,6.5,8.3,12,14.1,16.4c5.9,4.4,12.7,8.1,20.3,10.9c7.7,2.9,15.7,5.3,23.8,7.3
			c8,2.2,16,4.2,23.9,6.1c8,1.9,15.3,4,21.6,6.5c6.6,2.6,12,5.9,16.2,9.8c4.5,4.3,6.8,9.9,6.8,16.7c0,6.2-1.7,11.5-5.1,15.6
			c-3.2,3.9-7.3,7.1-12.1,9.3c-4.6,2.2-9.7,3.6-15,4.4c-5.1,0.7-9.9,1.1-14.5,1.1c-6.7,0-13.3-0.8-19.5-2.4
			c-6.4-1.6-12.1-4.1-16.8-7.5c-4.3-3.1-7.9-7-10.7-11.7c-1,5.1-2.6,10.1-4.8,14.8c-3.3,7.2-8,13.6-14,19.3
			c8.4,6,18.3,10.5,29.3,13.3c11.2,2.8,22.8,4.3,34.7,4.3c14.7,0,27.8-1.7,38.9-5c11-3.3,20.4-7.9,27.7-13.8
			C315.2,199.6,320.8,192.7,324.5,184.7z"/>
	</g>
	<text transform="matrix(1.0242 0 0 1 -3.337860e-005 289.7858)" font-family="'HelveticaNeueLTPro-Roman'" font-size="52.3987">Southern Supply Co.</text>
</g>
</svg>
